<svg width="50" height="43" viewBox="0 0 50 43" fill="none" xmlns="http://www.w3.org/2000/svg">
<path d="M2 20.8857H3.45714V22.1143C3.45714 22.4535 3.18212 22.7286 2.84286 22.7286C2.5036 22.7286 2.22857 23.0036 2.22857 23.3429V41.1571C2.22857 41.4964 1.95355 41.7714 1.61429 41.7714C1.27503 41.7714 1 41.4964 1 41.1571V21.8857C1 21.3334 1.44772 20.8857 2 20.8857Z" fill="#333333"/>
<path d="M3.45714 20.8857C3.45714 19.6571 3.45714 11.6714 3.45714 11.6714C3.45714 11.6714 3.45714 11.6714 3.45714 11.6714C3.45714 9.82857 5 7 12 7C19 7 20.6571 9.82857 20.6571 11.6714C20.6571 11.6714 20.6571 11.6714 20.6571 11.6714C20.6571 11.6714 20.6571 19.6571 20.6571 20.8857C20.6571 22.1143 18.2 22.1143 18.2 20.8857M3.45714 20.8857C3.45714 22.1143 5.91429 22.1143 5.91429 20.8857M3.45714 20.8857H2C1.44772 20.8857 1 21.3334 1 21.8857V41.1571C1 41.4964 1.27503 41.7714 1.61429 41.7714V41.7714C1.95355 41.7714 2.22857 41.4964 2.22857 41.1571V23.3429C2.22857 23.0036 2.5036 22.7286 2.84286 22.7286V22.7286C3.18212 22.7286 3.45714 22.4535 3.45714 22.1143V20.8857ZM5.91429 12.2857C5.91429 12.2857 5.91429 19.6571 5.91429 20.8857M5.91429 20.8857V40.7714C5.91429 41.3237 6.362 41.7714 6.91429 41.7714H9.6M18.2 12.2857C18.2 12.2857 18.2 19.6571 18.2 20.8857M18.2 20.8857V40.7714C18.2 41.3237 17.7523 41.7714 17.2 41.7714H13.2857" stroke="#333333"/>
<path d="M9.60001 41.7714H9.82858C10.3809 41.7714 10.8286 41.3237 10.8286 40.7714V28.0286C10.8286 27.4763 11.2763 27.0286 11.8286 27.0286H12.2857C12.838 27.0286 13.2857 27.4763 13.2857 28.0286V42.2695M13.2857 6.75714H10.8286" stroke="#333333"/>
<circle cx="11.6857" cy="3.68571" r="3.68571" fill="#333333"/>
<path d="M43.3544 10.9944C42.7322 9.74697 41.5379 7.37143 35.5 7.37143C29.4197 7.37143 28.6575 9.78046 28.0467 11.0205C28.0345 11.0454 28.0247 11.0667 28.0145 11.0925C27.7668 11.7132 24.3429 20.3159 24.3429 21.5C24.3429 22.5899 26.7601 23.1964 27.3057 22.4616C27.3752 22.3681 27.4143 22.2529 27.4143 22.1143L27.3057 22.4616C26.7601 23.1964 24.3429 22.5899 24.3429 21.5C24.3429 20.3159 27.7668 11.7132 28.0145 11.0925C28.0247 11.0667 28.0345 11.0454 28.0467 11.0205C28.6575 9.78046 29.4197 7.37143 35.5 7.37143C41.5379 7.37143 42.7322 9.74697 43.3544 10.9944C43.3755 11.0368 43.3912 11.0735 43.4061 11.1184C43.6724 11.92 46.4571 20.3302 46.4571 21.5C46.4571 22.5899 44.0399 23.1964 43.4943 22.4616L43.3857 22.1143C43.3857 22.2529 43.4248 22.3681 43.4943 22.4616C44.0399 23.1964 46.4571 22.5899 46.4571 21.5V22.5714C46.4571 22.9975 46.8025 23.3429 47.2286 23.3429C47.6546 23.3429 48 23.6882 48 24.1143V41.8857C48 42.1619 48.2239 42.3857 48.5 42.3857C48.7761 42.3857 49 42.1619 49 41.8857V22.5C49 21.9477 48.5523 21.5 48 21.5L46.4571 21.5C46.4571 20.3302 43.6724 11.92 43.4061 11.1184C43.3912 11.0735 43.3755 11.0368 43.3544 10.9944Z" fill="#333333"/>
<path d="M46.4571 21.5C46.4571 20.3302 43.6724 11.92 43.4061 11.1184C43.3912 11.0735 43.3755 11.0368 43.3544 10.9944C42.7322 9.74697 41.5379 7.37143 35.5 7.37143C29.4197 7.37143 28.6575 9.78046 28.0467 11.0205C28.0345 11.0454 28.0247 11.0667 28.0145 11.0925C27.7668 11.7132 24.3429 20.3159 24.3429 21.5C24.3429 22.7286 27.4143 23.3429 27.4143 22.1143M46.4571 21.5C46.4571 22.7286 43.3857 23.3429 43.3857 22.1143M46.4571 21.5L48 21.5C48.5523 21.5 49 21.9477 49 22.5V41.8857C49 42.1619 48.7761 42.3857 48.5 42.3857V42.3857C48.2239 42.3857 48 42.1619 48 41.8857V24.1143C48 23.6882 47.6546 23.3429 47.2286 23.3429V23.3429C46.8025 23.3429 46.4571 22.9975 46.4571 22.5714V21.5ZM40.9286 12.9C40.9286 12.9 43.3857 20.8857 43.3857 22.1143M43.3857 22.1143L46.0514 30.6446C46.2527 31.2885 45.7716 31.9429 45.097 31.9429H42.5429C41.9906 31.9429 41.5429 32.3906 41.5429 32.9429V41.3857C41.5429 41.938 41.0951 42.3857 40.5429 42.3857H37.8571M29.8714 12.9C29.8714 12.9 27.4143 20.8857 27.4143 22.1143M27.4143 22.1143L24.7486 30.6446C24.5473 31.2885 25.0284 31.9429 25.703 31.9429H28.2571C28.8094 31.9429 29.2571 32.3906 29.2571 32.9429V41.3857C29.2571 41.938 29.7049 42.3857 30.2571 42.3857H34.1714" stroke="#333333"/>
<path d="M36.6286 7.37143H34.1714M34.1714 42.8743V32.9429C34.1714 32.3906 34.6192 31.9429 35.1714 31.9429H35.6286C36.1809 31.9429 36.6286 32.3906 36.6286 32.9429V42.8867M37.8572 42.3857H36.6286" stroke="#333333"/>
<circle cx="35.4" cy="3.68571" r="3.68571" fill="#333333"/>
<path d="M1.61429 22.1143H2.84286M48.9143 22.7286H47.0714" stroke="#333333"/>
</svg>
