<svg width="30" height="31" viewBox="0 0 30 31" fill="none" xmlns="http://www.w3.org/2000/svg">
<path d="M1 9.24567C1 13.7457 0.999996 16.7457 5 16.7457C9 16.7457 8.5 13.7457 8.5 9.24567" stroke="#333333"/>
<path d="M0.5 8.74567H29" stroke="#333333"/>
<path d="M28.5 8.74567C28.5 14.7457 29 16.7457 24.5 16.7457" stroke="#333333"/>
<path d="M24.5 16.7457H5" stroke="#333333"/>
<path d="M23.5 16.7457V21.7457L19.5 24.7457V30.7457M19.5 16.7457V19.9223L15.5 22.7457V30.7457" stroke="#333333"/>
<path d="M4 3.5L3.5 3L3.25 3.25M4 3.5L3.5 4M4 3.5L11 7M3.5 4L3 3.5L3.25 3.25M3.5 4L4.5 7.5M3.25 3.25L0.5 0.5M4.5 4.5L7 7" stroke="#333333" stroke-width="0.5" stroke-linecap="round" stroke-linejoin="round"/>
<circle cx="3.125" cy="7.125" r="0.125" fill="#333333"/>
<circle cx="3.77606" cy="7" r="0.125" fill="#333333"/>
<circle cx="3.375" cy="6.55463" r="0.125" fill="#333333"/>
<circle cx="11.9028" cy="6.76331" r="0.125" fill="#333333"/>
<circle cx="11.7778" cy="6.00055" r="0.125" fill="#333333"/>
<circle cx="11.125" cy="6.00055" r="0.125" fill="#333333"/>
</svg>
