<svg width="29" height="26" viewBox="0 0 29 26" fill="none" xmlns="http://www.w3.org/2000/svg">
<path d="M0.5 4.5C0.500002 9 0.499996 12 4.5 12C8.5 12 8 9 8 4.5" stroke="#333333"/>
<path d="M0 4H28.5" stroke="#333333"/>
<path d="M28 4C28 10 28.5 12 24 12" stroke="#333333"/>
<path d="M24 12H4.5" stroke="#333333"/>
<path d="M23 12V17L19 20V26M19 12V15.1766L15 18V26" stroke="#333333"/>
<path d="M16.25 4.5L16.699 5.88197H18.1521L16.9765 6.73607L17.4256 8.11803L16.25 7.26393L15.0744 8.11803L15.5235 6.73607L14.3479 5.88197H15.801L16.25 4.5Z" fill="#333333"/>
<path d="M21.65 6.5L22.099 7.88197H23.5521L22.3766 8.73607L22.8256 10.118L21.65 9.26393L20.4744 10.118L20.9235 8.73607L19.7479 7.88197H21.201L21.65 6.5Z" fill="#333333"/>
<path d="M18.7058 0L19.1548 1.38197H20.6079L19.4323 2.23607L19.8814 3.61803L18.7058 2.76393L17.5302 3.61803L17.9792 2.23607L16.8037 1.38197H18.2568L18.7058 0Z" fill="#333333"/>
</svg>
