<svg width="29" height="27" viewBox="0 0 29 27" fill="none" xmlns="http://www.w3.org/2000/svg">
<circle cx="21.713" cy="10.948" r="0.182089" fill="#333333"/>
<circle cx="21.713" cy="15.3233" r="0.182089" fill="#333333"/>
<circle cx="21.8419" cy="16.0068" r="0.182089" fill="#333333"/>
<circle cx="22.3435" cy="15.5054" r="0.182089" fill="#333333"/>
<circle cx="22.4603" cy="11.1301" r="0.182089" fill="#333333"/>
<circle cx="22.3435" cy="10.5838" r="0.182089" fill="#333333"/>
<path d="M27.8508 26.2486H23.4807V24.0635H27.8508V13.1382H25.6657M25.6657 13.1382V12.4099H24.209M25.6657 13.1382V13.8666H24.209M24.209 12.4099L21.2956 11.6815M24.209 12.4099V13.1382M24.209 13.8666L21.2956 14.5949M24.209 13.8666V13.1382M24.209 13.1382H22.7523M22.024 13.1382H21.2956" stroke="#333333" stroke-width="0.5" stroke-linecap="round"/>
<path d="M6.72852 5.12633V1.48456H4.54346V6.58304" stroke="#333333" stroke-linecap="round"/>
<path d="M3.08674 10.2248V23.3352H20.5673V10.2248M3.08674 10.2248L11.827 4.39798L20.5673 10.2248M3.08674 10.2248L1.63004 8.7681L11.827 1.48456L22.024 8.7681L20.5673 10.2248" stroke="#333333" stroke-linecap="round"/>
<path d="M13.2837 23.3352V18.965H10.3703V23.3352" stroke="#333333" stroke-linecap="round"/>
</svg>
