<?xml version="1.0" encoding="UTF-8"?>
<svg id="aaf4d88f-6908-42b9-b3d6-5d6a3ec06a43" xmlns="http://www.w3.org/2000/svg" version="1.1" viewBox="0 0 27 26">
  <!-- Generator: Adobe Illustrator 29.3.1, SVG Export Plug-In . SVG Version: 2.1.0 Build 151)  -->
  <defs>
    <style>
      .st0 {
        fill-rule: evenodd;
      }
    </style>
  </defs>
  <path class="st0" d="M27,13.1c0-2,0-3.9,0-5.9,0-.4,0-.9-.1-1.3-.3-1.7-1.2-3.1-2.5-4.2C23,.6,21.4,0,19.6,0,15.6,0,11.6,0,7.5,0c-1.3,0-2.5.3-3.7.9C1.5,2.1,0,4.5,0,7.1c0,3.9,0,7.8,0,11.7,0,1.2.3,2.3.9,3.3,1.3,2.4,3.8,3.8,6.5,3.8,4.1,0,8.1,0,12.2,0,1.8,0,3.5-.7,4.9-1.8,1.6-1.3,2.5-3.2,2.5-5.3,0-1.9,0-3.8,0-5.7ZM13.4,20.2c-4,0-7.3-3.2-7.4-7.2,0-4.1,3.4-7.3,7.5-7.2,0,0,0,0,0,0,4.1,0,7.4,3.2,7.5,7.2,0,4.1-3.5,7.3-7.5,7.2,0,0,0,0,0,0ZM22.5,5.8c-.8,0-1.5-.6-1.5-1.4,0-.8.7-1.5,1.6-1.4.8,0,1.4.7,1.4,1.4,0,.8-.7,1.5-1.5,1.4Z"/>
  <path class="st0" d="M13.5,8.4c-2.6,0-4.8,2-4.8,4.6,0,2.6,2.2,4.7,4.8,4.6,2.6,0,4.8-2,4.8-4.6,0-2.6-2.2-4.7-4.8-4.6Z"/>
</svg>