<svg width="29" height="31" viewBox="0 0 29 31" fill="none" xmlns="http://www.w3.org/2000/svg">
<path d="M13.5142 15.2863L1.5414 19.5623M15.2246 16.9967L14.3694 29.8247M14.3694 16.1415L10.0934 21.2727M8.383 22.9831L4.9622 27.2591" stroke="#333333" stroke-linecap="round"/>
<circle cx="1.16119" cy="18.4932" r="0.2138" fill="#333333"/>
<circle cx="1.7552" cy="17.6381" r="0.2138" fill="#333333"/>
<circle cx="2.33059" cy="20.9096" r="0.2138" fill="#333333"/>
<circle cx="4.26464" cy="26.6176" r="0.2138" fill="#333333"/>
<circle cx="6.4985" cy="27.2861" r="0.2138" fill="#333333"/>
<circle cx="4.69224" cy="25.7625" r="0.2138" fill="#333333"/>
<circle cx="15.5552" cy="28.4908" r="0.2138" fill="#333333"/>
<circle cx="15.2246" cy="30.0384" r="0.2138" fill="#333333"/>
<circle cx="13.2029" cy="29.6108" r="0.2138" fill="#333333"/>
<path d="M16.3536 12.6464C16.1583 12.4512 15.8417 12.4512 15.6464 12.6464C15.4512 12.8417 15.4512 13.1583 15.6464 13.3536L16.3536 12.6464ZM16 13L15.6464 13.3536L16.6464 14.3536L17 14L17.3536 13.6464L16.3536 12.6464L16 13Z" fill="#333333"/>
<path d="M15 14L27 1L28 2L16 15L15 14Z" stroke="#333333" stroke-linecap="round"/>
</svg>
