<svg width="32" height="15" viewBox="0 0 32 15" fill="none" xmlns="http://www.w3.org/2000/svg">
<path d="M22.0491 6.15607L14.0491 14.1561H2.04912L10.0491 6.15607H22.0491ZM22.0491 6.15607L30.0491 14.1561" stroke="#333333" stroke-linecap="round"/>
<path d="M16.0491 2.15607H14.0491V6.15607H16.0491V2.15607Z" stroke="#333333" stroke-linecap="round" stroke-linejoin="round"/>
<path d="M14.0491 14.1561H16.0491L22.0491 8.15607L28.0491 14.1561H30.0491" stroke="#333333" stroke-linecap="round"/>
<path d="M28 3.5L28.5 4L27.5 4.5L27 4L27.5 3L28 3.5ZM28 3.5L31 0.5M26 4.5L23 5.5M26.5 5L25 6.5M27 5.5V8.5" stroke="#333333" stroke-width="0.5" stroke-linecap="round" stroke-linejoin="round"/>
<circle cx="22.125" cy="5.125" r="0.125" fill="#333333"/>
<circle cx="23" cy="4.875" r="0.125" fill="#333333"/>
<circle cx="22.5942" cy="4.625" r="0.125" fill="#333333"/>
<circle cx="27.7385" cy="8.125" r="0.125" fill="#333333"/>
<circle cx="27.8635" cy="8.86938" r="0.125" fill="#333333"/>
<circle cx="28.2731" cy="8.5" r="0.125" fill="#333333"/>
</svg>
