<svg width="37" height="43" viewBox="0 0 37 43" fill="none" xmlns="http://www.w3.org/2000/svg">
<circle cx="10.5571" cy="3.68571" r="3.68571" fill="#333333"/>
<path d="M17.5 11.5C17.5 8 12.5 7.5 11 7.5C9.5 7.5 5.5 6.5 3.5 10C1.61897 13.2918 2.39165 12.1608 1.2423 14.0944C1.08979 14.351 1.05115 14.6665 1.19967 14.9254C2.34728 16.9262 6.5 19.5 6.5 19.5L6.01361 22.4184C6.00455 22.4727 6 22.5277 6 22.5828V41C6 41.5523 6.44772 42 7 42H8.5C9.05229 42 9.5 41.5523 9.5 41V28.5C9.5 27.9477 9.94772 27.5 10.5 27.5H11C11.5523 27.5 12 27.9477 12 28.5V41C12 41.5523 12.4477 42 13 42H14.5C15.0523 42 15.5 41.5523 15.5 41V27V18.5C15.5 19.0523 15.9477 19.5 16.5 19.5C17.0523 19.5 17.5 19.0523 17.5 18.5V11.5Z" fill="#333333"/>
<path d="M6.5 19.5L6.01361 22.4184C6.00455 22.4727 6 22.5277 6 22.5828V41C6 41.5523 6.44772 42 7 42H8.5C9.05229 42 9.5 41.5523 9.5 41V28.5C9.5 27.9477 9.94772 27.5 10.5 27.5H11C11.5523 27.5 12 27.9477 12 28.5V41C12 41.5523 12.4477 42 13 42H14.5C15.0523 42 15.5 41.5523 15.5 41V27V12V18.5C15.5 19.0523 15.9477 19.5 16.5 19.5V19.5C17.0523 19.5 17.5 19.0523 17.5 18.5V11.5C17.5 8 12.5 7.5 11 7.5C9.5 7.5 5.5 6.5 3.5 10C1.61897 13.2918 2.39165 12.1608 1.2423 14.0944C1.08979 14.351 1.05115 14.6665 1.19967 14.9254C2.34728 16.9262 6.5 19.5 6.5 19.5ZM6.5 19.5L7.07979 18.6303C7.3283 18.2575 7.29856 17.765 7.00699 17.4248L4.5 14.5" stroke="#333333" stroke-linecap="round"/>
<path d="M1.5 8.5L2 7.5L10 19L7.5 21.5V20L8.5 17.5L5 13.5L4 14L1.5 8.5Z" fill="#E6D8BD"/>
<path d="M1 5.5L1.5 6.5M2 7.5L1.5 8.5L4 14L5 13.5L8.5 17.5L7.5 20V21.5L10 19L2 7.5ZM2 7.5L1.5 6.5M1.5 6.5L2.5 6" stroke="#E6D8BD" stroke-width="0.5" stroke-linecap="round"/>
<circle cx="29.0571" cy="3.68571" r="3.68571" fill="#333333"/>
<path d="M36 11.5C36 8 31 7.5 29.5 7.5C28 7.5 24 6.5 22 10C20.119 13.2918 20.8916 12.1608 19.7423 14.0944C19.5898 14.351 19.5512 14.6665 19.6997 14.9254C20.8473 16.9262 25 19.5 25 19.5L24.5136 22.4184C24.5046 22.4727 24.5 22.5277 24.5 22.5828V41C24.5 41.5523 24.9477 42 25.5 42H27C27.5523 42 28 41.5523 28 41V28.5C28 27.9477 28.4477 27.5 29 27.5H29.5C30.0523 27.5 30.5 27.9477 30.5 28.5V41C30.5 41.5523 30.9477 42 31.5 42H33C33.5523 42 34 41.5523 34 41V27V18.5C34 19.0523 34.4477 19.5 35 19.5C35.5523 19.5 36 19.0523 36 18.5V11.5Z" fill="#333333"/>
<path d="M25 19.5L24.5136 22.4184C24.5046 22.4727 24.5 22.5277 24.5 22.5828V41C24.5 41.5523 24.9477 42 25.5 42H27C27.5523 42 28 41.5523 28 41V28.5C28 27.9477 28.4477 27.5 29 27.5H29.5C30.0523 27.5 30.5 27.9477 30.5 28.5V41C30.5 41.5523 30.9477 42 31.5 42H33C33.5523 42 34 41.5523 34 41V27V12V18.5C34 19.0523 34.4477 19.5 35 19.5V19.5C35.5523 19.5 36 19.0523 36 18.5V11.5C36 8 31 7.5 29.5 7.5C28 7.5 24 6.5 22 10C20.119 13.2918 20.8916 12.1608 19.7423 14.0944C19.5898 14.351 19.5512 14.6665 19.6997 14.9254C20.8473 16.9262 25 19.5 25 19.5ZM25 19.5L25.5798 18.6303C25.8283 18.2575 25.7986 17.765 25.507 17.4248L23 14.5" stroke="#333333" stroke-linecap="round"/>
<path d="M20 8.5L20.5 7.5L28.5 19L26 21.5V20L27 17.5L23.5 13.5L22.5 14L20 8.5Z" fill="#E6D8BD"/>
<path d="M19.5 5.5L20 6.5M20.5 7.5L20 8.5L22.5 14L23.5 13.5L27 17.5L26 20V21.5L28.5 19L20.5 7.5ZM20.5 7.5L20 6.5M20 6.5L21 6" stroke="#E6D8BD" stroke-width="0.5" stroke-linecap="round"/>
</svg>
