<svg width="25" height="27" viewBox="0 0 25 27" fill="none" xmlns="http://www.w3.org/2000/svg">
<path d="M13 12.5H11V11.5H19V12.5H17M13 12.5V13.5H14.5M13 12.5H17M17 12.5V13.5H15.5M14.5 13.5V18H15.5V13.5M14.5 13.5H15.5M10 5V11M8 8V14M4 6V8M3 13V17M5.5 13V16M7.5 17.5V21M4 19V21M10 15.5V18M12 16.5V19.5M14 19V21.5M5.5 20.5V24M10 19.5V24M18 17.5V23.5" stroke="#333333" stroke-width="0.75" stroke-linecap="round" stroke-linejoin="round"/>
<path d="M16 5L16.449 6.38197H17.9021L16.7265 7.23607L17.1756 8.61803L16 7.76393L14.8244 8.61803L15.2735 7.23607L14.0979 6.38197H15.551L16 5Z" fill="#333333"/>
<path d="M19 0L19.449 1.38197H20.9021L19.7265 2.23607L20.1756 3.61803L19 2.76393L17.8244 3.61803L18.2735 2.23607L17.0979 1.38197H18.551L19 0Z" fill="#333333"/>
<path d="M23 5L23.449 6.38197H24.9021L23.7265 7.23607L24.1756 8.61803L23 7.76393L21.8244 8.61803L22.2735 7.23607L21.0979 6.38197H22.551L23 5Z" fill="#333333"/>
<path d="M1.5 4H20.5V25H1.5V4ZM0.5 25H21.5V26.5H0.5V25Z" stroke="#333333" stroke-linecap="round" stroke-linejoin="round"/>
</svg>
