<svg width="38" height="43" viewBox="0 0 38 43" fill="none" xmlns="http://www.w3.org/2000/svg">
<path d="M20.0115 10.9944C19.3893 9.74697 18.195 7.37143 12.1571 7.37143C6.07687 7.37143 5.31462 9.78046 4.70388 11.0205C4.69164 11.0454 4.68187 11.0667 4.6716 11.0925C4.42395 11.7132 1 20.3159 1 21.5C1 22.5899 3.41727 23.1964 3.96289 22.4616C4.03231 22.3681 4.07143 22.2529 4.07143 22.1143L3.96289 22.4616C3.41727 23.1964 1 22.5899 1 21.5C1 20.3159 4.42395 11.7132 4.6716 11.0925C4.68187 11.0667 4.69164 11.0454 4.70388 11.0205C5.31462 9.78046 6.07687 7.37143 12.1571 7.37143C18.195 7.37143 19.3893 9.74697 20.0115 10.9944C20.0327 11.0368 20.0483 11.0735 20.0632 11.1184C20.3295 11.92 23.1143 20.3302 23.1143 21.5C23.1143 22.5899 20.697 23.1964 20.1514 22.4616L20.0429 22.1143C20.0429 22.2529 20.082 22.3681 20.1514 22.4616C20.697 23.1964 23.1143 22.5899 23.1143 21.5V22.05C23.1143 22.3362 23.2369 22.6086 23.4511 22.7984L26.1632 25.2016C26.3774 25.3914 26.5 25.6638 26.5 25.95V33.3974C26.5 33.4656 26.493 33.5337 26.4792 33.6005L24.7957 41.7176C24.7242 42.0623 24.9874 42.3857 25.3395 42.3857C25.5363 42.3857 25.7184 42.2815 25.8182 42.1119L29.0429 36.6277C29.4498 35.9358 30.4649 35.981 30.8086 36.7063L33.3474 42.0638C33.4406 42.2604 33.6387 42.3857 33.8562 42.3857C34.197 42.3857 34.4597 42.0854 34.4143 41.7477L33.0475 31.5749C32.908 30.5364 34.2569 30.0098 34.8578 30.8683L35.6909 32.0585C35.8665 32.3093 36.2033 32.3867 36.4708 32.2377C36.7618 32.0756 36.8639 31.7066 36.6976 31.4179L33.2261 25.3925C33.0824 25.143 32.8381 24.9676 32.5558 24.9112L28.136 24.0272C28.0458 24.0092 27.9585 23.9787 27.8766 23.9368L23.1143 21.5C23.1143 20.3302 20.3295 11.92 20.0632 11.1184C20.0483 11.0735 20.0327 11.0368 20.0115 10.9944Z" fill="#333333"/>
<path d="M23.1143 21.5C23.1143 20.3302 20.3295 11.92 20.0632 11.1184C20.0483 11.0735 20.0327 11.0368 20.0115 10.9944C19.3893 9.74697 18.195 7.37143 12.1571 7.37143C6.07687 7.37143 5.31462 9.78046 4.70388 11.0205C4.69164 11.0454 4.68187 11.0667 4.6716 11.0925C4.42394 11.7132 1 20.3159 1 21.5C1 22.7286 4.07143 23.3429 4.07143 22.1143M23.1143 21.5C23.1143 22.7286 20.0429 23.3429 20.0429 22.1143M23.1143 21.5V22.05C23.1143 22.3362 23.2369 22.6086 23.4511 22.7984L26.1632 25.2016C26.3774 25.3914 26.5 25.6638 26.5 25.95V33.3974C26.5 33.4656 26.493 33.5337 26.4792 33.6005L24.7957 41.7176C24.7242 42.0623 24.9874 42.3857 25.3395 42.3857V42.3857C25.5363 42.3857 25.7184 42.2815 25.8182 42.1119L29.0429 36.6277C29.4498 35.9358 30.4649 35.981 30.8086 36.7063L33.3474 42.0638C33.4406 42.2604 33.6387 42.3857 33.8562 42.3857V42.3857C34.197 42.3857 34.4597 42.0854 34.4143 41.7477L33.0475 31.5749C32.908 30.5364 34.2569 30.0098 34.8578 30.8683L35.6909 32.0585C35.8665 32.3093 36.2033 32.3867 36.4708 32.2377V32.2377C36.7618 32.0756 36.8639 31.7066 36.6976 31.4179L33.2261 25.3925C33.0824 25.143 32.8381 24.9676 32.5558 24.9112L28.136 24.0272C28.0458 24.0092 27.9585 23.9787 27.8766 23.9368L23.1143 21.5ZM17.5857 12.9C17.5857 12.9 20.0429 20.8857 20.0429 22.1143M20.0429 22.1143L22.7086 30.6446C22.9098 31.2885 22.4287 31.9429 21.7541 31.9429H19.2C18.6477 31.9429 18.2 32.3906 18.2 32.9429V41.3857C18.2 41.938 17.7523 42.3857 17.2 42.3857H14.5143M6.52857 12.9C6.52857 12.9 4.07143 20.8857 4.07143 22.1143M4.07143 22.1143L1.40571 30.6446C1.20448 31.2885 1.68555 31.9429 2.36019 31.9429H4.91429C5.46657 31.9429 5.91429 32.3906 5.91429 32.9429V41.3857C5.91429 41.938 6.362 42.3857 6.91429 42.3857H10.8286" stroke="#333333"/>
<path d="M13.2857 7.37143H10.8286M10.8286 42.8743V32.9429C10.8286 32.3906 11.2763 31.9429 11.8286 31.9429H12.2857C12.838 31.9429 13.2857 32.3906 13.2857 32.9429V42.8867M14.5143 42.3857H13.2857" stroke="#333333"/>
<circle cx="12.0571" cy="3.68571" r="3.68571" fill="#333333"/>
<circle cx="30" cy="22" r="2" fill="#333333"/>
</svg>
