<svg width="20" height="28" viewBox="0 0 20 28" fill="none" xmlns="http://www.w3.org/2000/svg">
<circle cx="8.12502" cy="23.125" r="0.125" fill="#333333"/>
<circle cx="5.97041" cy="23.7961" r="0.125" fill="#333333"/>
<circle cx="2.47664" cy="22.7961" r="0.125" fill="#333333"/>
<circle cx="3.74326" cy="24.7961" r="0.125" fill="#333333"/>
<circle cx="5.59103" cy="25.3041" r="0.125" transform="rotate(-114.754 5.59103 25.3041)" fill="#333333"/>
<circle cx="7.16447" cy="24.9672" r="0.125" fill="#333333"/>
<circle cx="5.00987" cy="25.6382" r="0.125" fill="#333333"/>
<circle cx="1.5161" cy="24.6382" r="0.125" fill="#333333"/>
<circle cx="2.78271" cy="26.6382" r="0.125" fill="#333333"/>
<circle cx="7.66602" cy="25.4051" r="0.125" transform="rotate(-114.754 7.66602 25.4051)" fill="#333333"/>
<circle cx="8.12502" cy="22.125" r="0.125" fill="#333333"/>
<circle cx="5.97041" cy="22.7961" r="0.125" fill="#333333"/>
<circle cx="2.47664" cy="21.7961" r="0.125" fill="#333333"/>
<circle cx="3.74326" cy="23.7961" r="0.125" fill="#333333"/>
<circle cx="4.68291" cy="25.7228" r="0.125" transform="rotate(-114.754 4.68291 25.7228)" fill="#333333"/>
<circle cx="7.16447" cy="23.9672" r="0.125" fill="#333333"/>
<circle cx="5.00987" cy="24.6382" r="0.125" fill="#333333"/>
<circle cx="1.5161" cy="23.6383" r="0.125" fill="#333333"/>
<circle cx="2.78271" cy="25.6383" r="0.125" fill="#333333"/>
<circle cx="6.75801" cy="25.8238" r="0.125" transform="rotate(-114.754 6.75801 25.8238)" fill="#333333"/>
<circle cx="8.12502" cy="21.125" r="0.125" fill="#333333"/>
<circle cx="5.97041" cy="21.7961" r="0.125" fill="#333333"/>
<circle cx="3.40771" cy="21.625" r="0.125" fill="#333333"/>
<circle cx="3.40771" cy="20.75" r="0.125" fill="#333333"/>
<circle cx="7.41446" cy="20.6711" r="0.125" fill="#333333"/>
<circle cx="6.57889" cy="20.625" r="0.125" fill="#333333"/>
<circle cx="5.74332" cy="20.5789" r="0.125" fill="#333333"/>
<circle cx="6.1996" cy="19.414" r="0.125" fill="#333333"/>
<circle cx="8.06241" cy="18.8382" r="0.125" fill="#333333"/>
<circle cx="7.89905" cy="19.4507" r="0.125" fill="#333333"/>
<circle cx="8.25002" cy="20.6927" r="0.125" fill="#333333"/>
<circle cx="5.59541" cy="21.0682" r="0.125" fill="#333333"/>
<circle cx="1.69991" cy="20.8289" r="0.125" fill="#333333"/>
<path d="M13.5 20.5133L13.949 21.8953H15.4021L14.2265 22.7494L14.6756 24.1313L13.5 23.2772L12.3244 24.1313L12.7735 22.7494L11.5979 21.8953H13.051L13.5 20.5133Z" fill="#333333"/>
<path d="M18 20.5461L18.449 21.9281H19.9021L18.7265 22.7822L19.1756 24.1642L18 23.3101L16.8244 24.1642L17.2735 22.7822L16.0979 21.9281H17.551L18 20.5461Z" fill="#333333"/>
<path d="M15.697 23.6841L16.146 25.0661H17.5991L16.4235 25.9202L16.8726 27.3022L15.697 26.4481L14.5214 27.3022L14.9705 25.9202L13.7949 25.0661H15.248L15.697 23.6841Z" fill="#333333"/>
<circle cx="6.29203" cy="21.083" r="0.125" transform="rotate(-68.6997 6.29203 21.083)" fill="#333333"/>
<circle cx="3.97525" cy="21.0683" r="0.125" transform="rotate(-137.399 3.97525 21.0683)" fill="#333333"/>
<circle cx="4.33494" cy="22.2723" r="0.125" transform="rotate(153.901 4.33494 22.2723)" fill="#333333"/>
<circle cx="5.44435" cy="21.5361" r="0.125" transform="rotate(85.2011 5.44435 21.5361)" fill="#333333"/>
<circle cx="2.05111" cy="17.7958" r="0.125" transform="rotate(16.5013 2.05111 17.7958)" fill="#333333"/>
<circle cx="2.60828" cy="18.8164" r="0.125" transform="rotate(-40.6951 2.60828 18.8164)" fill="#333333"/>
<circle cx="5.4028" cy="19.4878" r="0.125" transform="rotate(137.737 5.4028 19.4878)" fill="#333333"/>
<circle cx="6.76895" cy="18.6548" r="0.125" transform="rotate(-43.8313 6.76895 18.6548)" fill="#333333"/>
<circle cx="6.32842" cy="19.1041" r="0.125" transform="rotate(134.601 6.32842 19.1041)" fill="#333333"/>
<circle cx="2.00027" cy="18.8155" r="0.125" transform="rotate(-52.1984 2.00027 18.8155)" fill="#333333"/>
<circle cx="3.43783" cy="19.4116" r="0.125" transform="rotate(-109.395 3.43783 19.4116)" fill="#333333"/>
<circle cx="4.5573" cy="18.9156" r="0.125" transform="rotate(69.0371 4.5573 18.9156)" fill="#333333"/>
<circle cx="7.62979" cy="19.2036" r="0.125" transform="rotate(-112.531 7.62979 19.2036)" fill="#333333"/>
<circle cx="5.41423" cy="18.7981" r="0.125" transform="rotate(65.9008 5.41423 18.7981)" fill="#333333"/>
<circle cx="1.81254" cy="18.5212" r="0.125" transform="rotate(-120.898 1.81254 18.5212)" fill="#333333"/>
<circle cx="3.08874" cy="19.4099" r="0.125" transform="rotate(-178.095 3.08874 19.4099)" fill="#333333"/>
<circle cx="7.28114" cy="19.2212" r="0.125" transform="rotate(178.769 7.28114 19.2212)" fill="#333333"/>
<circle cx="5.82544" cy="18.8721" r="0.125" transform="rotate(-2.79891 5.82544 18.8721)" fill="#333333"/>
<circle cx="2.47664" cy="20.7961" r="0.125" fill="#333333"/>
<circle cx="3.74326" cy="22.7961" r="0.125" fill="#333333"/>
<circle cx="3.77481" cy="26.1416" r="0.125" transform="rotate(-114.754 3.77481 26.1416)" fill="#333333"/>
<circle cx="7.16447" cy="22.9672" r="0.125" fill="#333333"/>
<circle cx="5.00987" cy="23.6382" r="0.125" fill="#333333"/>
<circle cx="1.5161" cy="22.6383" r="0.125" fill="#333333"/>
<circle cx="2.78271" cy="24.6383" r="0.125" fill="#333333"/>
<circle cx="5.84991" cy="26.2425" r="0.125" transform="rotate(-114.754 5.84991 26.2425)" fill="#333333"/>
<circle cx="6.66447" cy="22.7172" r="0.125" fill="#333333"/>
<circle cx="4.50987" cy="23.3882" r="0.125" fill="#333333"/>
<circle cx="1.0161" cy="22.3883" r="0.125" fill="#333333"/>
<circle cx="2.28271" cy="24.3883" r="0.125" fill="#333333"/>
<circle cx="5.83223" cy="26.8012" r="0.125" transform="rotate(-114.754 5.83223 26.8012)" fill="#333333"/>
<circle cx="6.45393" cy="22.375" r="0.125" fill="#333333"/>
<circle cx="4.24939" cy="22.9211" r="0.25" fill="#333333"/>
<circle cx="3.15771" cy="22.7106" r="0.25" fill="#333333"/>
<circle cx="3.28271" cy="24.3883" r="0.25" fill="#333333"/>
<circle cx="3.87596" cy="25.3422" r="0.25" fill="#333333"/>
<circle cx="3.17116" cy="26.2103" r="0.25" fill="#333333"/>
<circle cx="7.6588" cy="24.3883" r="0.25" fill="#333333"/>
<circle cx="6.15865" cy="24.6711" r="0.25" fill="#333333"/>
<circle cx="4.87122" cy="21.9094" r="0.25" fill="#333333"/>
<circle cx="7.1588" cy="21.2449" r="0.25" fill="#333333"/>
<circle cx="5.02924" cy="19.1221" r="0.25" fill="#333333"/>
<circle cx="2.18201" cy="19.2808" r="0.25" fill="#333333"/>
<circle cx="1.18056" cy="20.8289" r="0.125" fill="#333333"/>
<circle cx="2.07217" cy="24.0461" r="0.125" fill="#333333"/>
<circle cx="7.75002" cy="23.8091" r="0.125" fill="#333333"/>
<circle cx="5.59541" cy="24.4802" r="0.125" fill="#333333"/>
<circle cx="2.10164" cy="23.4802" r="0.125" fill="#333333"/>
<circle cx="3.36826" cy="25.4802" r="0.125" fill="#333333"/>
<circle cx="6.36928" cy="25.3582" r="0.125" transform="rotate(-114.754 6.36928 25.3582)" fill="#333333"/>
<circle cx="6.91447" cy="22.125" r="0.125" fill="#333333"/>
<circle cx="4.75987" cy="22.7961" r="0.125" fill="#333333"/>
<circle cx="1.2661" cy="21.7961" r="0.125" fill="#333333"/>
<circle cx="2.53271" cy="23.7961" r="0.125" fill="#333333"/>
<circle cx="5.1898" cy="26.8222" r="0.125" transform="rotate(-114.754 5.1898 26.8222)" fill="#333333"/>
<circle cx="7.87502" cy="21.625" r="0.125" fill="#333333"/>
<circle cx="5.72041" cy="22.2961" r="0.125" fill="#333333"/>
<circle cx="3.15771" cy="22.125" r="0.125" fill="#333333"/>
<circle cx="3.15771" cy="21.25" r="0.125" fill="#333333"/>
<circle cx="6.66706" cy="21.4975" r="0.125" transform="rotate(-68.6997 6.66706 21.4975)" fill="#333333"/>
<circle cx="4.49771" cy="20.8694" r="0.125" transform="rotate(-137.399 4.49771 20.8694)" fill="#333333"/>
<circle cx="4.33945" cy="21.7134" r="0.125" transform="rotate(153.901 4.33945 21.7134)" fill="#333333"/>
<circle cx="4.92522" cy="21.3289" r="0.125" transform="rotate(85.2011 4.92522 21.3289)" fill="#333333"/>
<circle cx="1.66955" cy="18.2042" r="0.125" transform="rotate(16.5013 1.66955 18.2042)" fill="#333333"/>
<circle cx="2.74488" cy="19.3584" r="0.125" transform="rotate(-40.6951 2.74488 19.3584)" fill="#333333"/>
<circle cx="4.21927" cy="19.2742" r="0.125" transform="rotate(137.737 4.21927 19.2742)" fill="#333333"/>
<circle cx="6.93498" cy="19.1884" r="0.125" transform="rotate(-43.8313 6.93498 19.1884)" fill="#333333"/>
<circle cx="6.14783" cy="18.6633" r="0.125" transform="rotate(134.601 6.14783 18.6633)" fill="#333333"/>
<circle cx="3.99246" cy="19.4812" r="0.125" transform="rotate(-109.395 3.99246 19.4812)" fill="#333333"/>
<circle cx="4.00096" cy="18.8612" r="0.125" transform="rotate(69.0371 4.00096 18.8612)" fill="#333333"/>
<circle cx="8.1874" cy="19.2428" r="0.125" transform="rotate(-112.531 8.1874 19.2428)" fill="#333333"/>
<circle cx="4.89438" cy="18.6432" r="0.125" transform="rotate(65.9008 4.89438 18.6432)" fill="#333333"/>
<circle cx="2.36991" cy="18.4788" r="0.125" transform="rotate(-120.898 2.36991 18.4788)" fill="#333333"/>
<circle cx="3.3551" cy="18.9185" r="0.125" transform="rotate(-178.095 3.3551 18.9185)" fill="#333333"/>
<circle cx="4.6535" cy="19.4062" r="0.125" transform="rotate(0.337336 4.6535 19.4062)" fill="#333333"/>
<circle cx="7.5202" cy="18.7158" r="0.125" transform="rotate(178.769 7.5202 18.7158)" fill="#333333"/>
<circle cx="5.57575" cy="19.1516" r="0.125" transform="rotate(-2.79891 5.57575 19.1516)" fill="#333333"/>
<circle cx="2.22664" cy="21.2961" r="0.125" fill="#333333"/>
<circle cx="3.49326" cy="23.2961" r="0.125" fill="#333333"/>
<circle cx="4.33354" cy="26.1592" r="0.125" transform="rotate(-114.754 4.33354 26.1592)" fill="#333333"/>
<circle cx="6.91447" cy="23.4672" r="0.125" fill="#333333"/>
<circle cx="4.75987" cy="24.1382" r="0.125" fill="#333333"/>
<circle cx="1.2661" cy="23.1383" r="0.125" fill="#333333"/>
<circle cx="2.53271" cy="25.1383" r="0.125" fill="#333333"/>
<circle cx="6.40865" cy="26.2602" r="0.125" transform="rotate(-114.754 6.40865 26.2602)" fill="#333333"/>
<circle cx="7.41447" cy="21.75" r="0.125" fill="#333333"/>
<circle cx="5.25987" cy="22.4211" r="0.125" fill="#333333"/>
<circle cx="1.7661" cy="21.4211" r="0.125" fill="#333333"/>
<circle cx="3.03271" cy="23.4211" r="0.125" fill="#333333"/>
<circle cx="4.63991" cy="26.5252" r="0.125" transform="rotate(-114.754 4.63991 26.5252)" fill="#333333"/>
<circle cx="6.45393" cy="23.5922" r="0.125" fill="#333333"/>
<circle cx="4.29933" cy="24.2632" r="0.125" fill="#333333"/>
<circle cx="4.00096" cy="26.8011" r="0.125" fill="#333333"/>
<circle cx="2.07217" cy="25.2633" r="0.125" fill="#333333"/>
<circle cx="6.715" cy="26.6261" r="0.125" transform="rotate(-114.754 6.715 26.6261)" fill="#333333"/>
<circle cx="7.66447" cy="22.7172" r="0.125" fill="#333333"/>
<circle cx="5.50987" cy="23.3882" r="0.125" fill="#333333"/>
<circle cx="2.0161" cy="22.3883" r="0.125" fill="#333333"/>
<circle cx="5.41351" cy="25.8931" r="0.125" transform="rotate(-114.754 5.41351 25.8931)" fill="#333333"/>
<circle cx="6.70393" cy="24.5593" r="0.125" fill="#333333"/>
<circle cx="4.54933" cy="25.2305" r="0.125" fill="#333333"/>
<circle cx="7.95688" cy="26.6564" r="0.125" fill="#333333"/>
<circle cx="2.32217" cy="26.2305" r="0.125" fill="#333333"/>
<circle cx="7.4886" cy="25.9941" r="0.125" transform="rotate(-114.754 7.4886 25.9941)" fill="#333333"/>
<path d="M6.00002 3.85714V1H4.00002V5" stroke="#333333" stroke-linecap="round"/>
<path d="M3.14286 7.8V18H16.8571V7.8M3.14286 7.8L10 3.26667L16.8571 7.8M3.14286 7.8L2 6.66667L10 1L18 6.66667L16.8571 7.8" stroke="#333333" stroke-linecap="round"/>
<path d="M11 18V15H9.00002V18" stroke="#333333" stroke-linecap="round"/>
<path d="M9 18V20M11 18V26H9V20M1 17V20H9" stroke="#333333" stroke-width="0.75" stroke-linecap="round" stroke-linejoin="round"/>
<path d="M17 17H19V20H11M3 17H1" stroke="#333333" stroke-width="0.75" stroke-linecap="round" stroke-linejoin="round"/>
</svg>
